<?xml version="1.0" encoding="UTF-8"?>
<svg id="Layer_1" data-name="Layer 1" xmlns="http://www.w3.org/2000/svg" viewBox="0 0 1080 1080">
  <defs>
    <style>
      .cls-1 {
        fill: #500000;
      }

      .cls-1, .cls-2, .cls-3 {
        stroke-width: 0px;
      }

      .cls-2 {
        fill: #b1b3b6;
      }

      .cls-3 {
        fill: #fff;
      }
    </style>
  </defs>
  <g>
    <rect class="cls-1" x="27.05" y="429.17" width="219.91" height="221.65"/>
    <polygon class="cls-3" points="217.76 517.38 201.42 517.38 200.48 517.38 200.07 518.24 188.22 542.9 176.34 518.23 175.93 517.38 174.98 517.38 159.2 517.38 157.7 517.38 157.7 518.89 157.7 527.3 157.7 528.8 159.2 528.8 161.9 528.8 161.9 564.1 158.97 564.1 157.47 564.1 157.47 565.61 157.47 574.01 157.47 575.52 158.97 575.52 176.7 575.52 178.21 575.52 178.21 574.01 178.21 565.61 178.21 564.1 176.7 564.1 173.64 564.1 173.64 539.05 186.88 566.36 188.23 569.13 189.59 566.36 202.96 538.98 202.96 564.1 200.04 564.1 198.54 564.1 198.54 565.61 198.54 574.01 198.54 575.52 200.04 575.52 217.76 575.52 219.27 575.52 219.27 574.01 219.27 565.61 219.27 564.1 217.76 564.1 214.71 564.1 214.71 528.8 217.76 528.8 219.27 528.8 219.27 527.3 219.27 518.89 219.27 517.38 217.76 517.38"/>
    <path class="cls-3" d="M114.82,564.07h-4.71l-15.34-35.46h2.97v-11.43h-24.67v11.43h3.39l-15.33,35.46h-6.38v11.42h22.35v-11.42h-3.25l2.55-5.9h18.45l2.54,5.9h-3.43v11.42h22.37v-11.42h-1.51ZM89.91,546.75h-8.57l4.28-9.91,4.29,9.91Z"/>
    <polygon class="cls-3" points="199 473.06 74.62 473.06 72.89 473.06 72.89 474.78 72.89 508 72.89 509.72 74.62 509.72 96.1 509.72 97.81 509.72 97.81 508 97.81 495.66 124.36 495.66 124.36 583.22 112.01 583.22 110.29 583.22 110.29 584.95 110.29 606.43 110.29 608.14 112.01 608.14 161.61 608.14 163.33 608.14 163.33 606.43 163.33 584.95 163.33 583.22 161.61 583.22 149.27 583.22 149.27 495.66 175.65 495.66 175.65 507.85 175.65 509.56 177.38 509.56 199 509.56 200.72 509.56 200.72 507.85 200.72 474.78 200.72 473.06 199 473.06"/>
    <polygon class="cls-2" points="152.96 593.45 158.21 588.04 158.21 602.87 152.96 597.85 152.96 593.45"/>
    <polygon class="cls-2" points="144.2 588.43 138.94 593.61 138.94 485.34 144.2 490.58 144.2 588.43"/>
    <polygon class="cls-2" points="83.43 483.44 78.02 478.18 192.97 478.18 186.18 483.44 83.43 483.44"/>
    <polygon class="cls-2" points="195.76 504.76 190.5 499.74 190.5 486.37 195.76 480.96 195.76 504.76"/>
  </g>
  <g>
    <rect class="cls-1" x="1018.43" y="551.49" width=".03" height="0"/>
    <path class="cls-1" d="M313.93,469.49v23.27h5.74c.24-5.07,1.22-8.83,2.94-11.28,1.72-2.43,3.7-3.93,5.95-4.46,2.26-.56,5.1-.82,8.53-.82h8.7v60.07c0,3.55-.72,6.06-2.16,7.5-1.46,1.45-4.71,2.18-9.74,2.18v5.57h41.1v-5.57c-3.41,0-6.03-.35-7.8-1.08-1.78-.74-2.89-1.75-3.38-3.06-.48-1.32-.73-3.16-.73-5.54v-60.06h10.4c2.58,0,4.85.28,6.84.84,1.97.55,3.82,2.06,5.54,4.47,1.71,2.42,2.82,6.17,3.35,11.24h5.74v-23.27h-81.01Z"/>
    <path class="cls-1" d="M464.17,538.27c-2.42,2.93-4.88,4.74-7.4,5.45-2.53.71-5.17,1.05-7.96,1.05h-6.59c-2.94,0-5.2-.21-6.79-.66-1.6-.43-2.73-1.16-3.44-2.14-.71-.97-1.15-2.22-1.32-3.71-.15-1.49-.23-3.84-.23-7.08v-19.28h8.46c2.86,0,4.99.23,6.37.73,1.39.48,2.41,1.45,3.05,2.87.66,1.42,1.05,3.66,1.21,6.68h5.56v-27.25h-5.8c-.2,3.01-.58,5.22-1.15,6.64-.56,1.42-1.55,2.37-2.96,2.88-1.42.51-3.55.75-6.41.75h-8.33v-29h15.35c4.06,0,7.13.24,9.16.69,2.03.47,3.88,1.72,5.49,3.76,1.64,2.04,3.08,5.43,4.33,10.15h5.57l-1.09-21.3h-68.02v5.56c3.6,0,6.24.39,7.97,1.11,1.71.76,2.8,1.77,3.26,3.08.46,1.3.69,3.15.69,5.49v51.53c0,3.56-.73,6.06-2.18,7.52-1.45,1.45-4.7,2.16-9.74,2.16v5.56h73.04l.67-26.94v-.04h-5.67c-.97,6.24-2.67,10.82-5.09,13.75"/>
    <path class="cls-1" d="M621.14,545.24c-1.49.44-3.88.68-7.14.68v5.57h38.62l-.02-5.55c-2.69,0-4.79-.44-6.29-1.3-1.47-.87-2.66-2.1-3.51-3.69-.84-1.6-2.16-4.67-3.96-9.16l-24.99-63.85h-5.74l-23.63,61.89c-1.66,4.32-3.21,7.64-4.62,10.02-1.45,2.34-2.95,3.97-4.5,4.81-.83.45-1.77.76-2.78.96-1.55-.23-2.92-.58-4.05-1.07-1.97-.84-3.92-2.27-5.82-4.28-1.93-2.03-4.36-5.02-7.35-8.96l-19.96-26.13,14.63-16.81c3.19-3.68,5.62-6.31,7.28-7.93,1.69-1.62,3.63-2.92,5.82-3.89,2.2-1.01,4.86-1.49,7.96-1.49v-5.57h-33.91v5.57h2.82c2.77,0,4.67.29,5.68.87,1.01.59,1.5,1.55,1.5,2.87,0,.93-.18,1.7-.53,2.33-.37.62-1.14,1.69-2.29,3.24l-13.01,15.23-11.43-14.76c-2.46-3.47-3.68-5.65-3.68-6.54,0-1.47.58-2.39,1.72-2.75,1.15-.34,2.87-.51,5.16-.51h3.15v-5.57h-44.75v5.57c3.23,0,5.74.29,7.51.91,1.77.61,3.33,1.6,4.65,2.98,1.33,1.39,3.48,4.03,6.48,7.89l19.76,26.02-14.57,17.11c-4.11,4.79-7.45,8.29-9.98,10.48-2.53,2.21-4.83,3.65-6.86,4.33-2.04.69-4.36,1.07-6.99,1.14v5.57h36.03v-5.57c-2.37,0-4.26-.07-5.67-.25-1.4-.15-2.61-.61-3.59-1.36-1-.74-1.49-1.85-1.49-3.35,0-1.82,1.49-4.41,4.48-7.8l12.75-14.88,13.26,17.5c2.13,2.86,3.2,4.75,3.2,5.67,0,1.9-.83,3.12-2.5,3.66-1.68.54-3.56.81-5.65.81h-3.81v5.57h47.84s.03,0,.03,0h0s21.42,0,21.42,0v-5.57c-2.5,0-4.7-.31-6.57-.96-1.87-.64-2.8-2.18-2.8-4.6,0-1.33.58-3.48,1.71-6.47l1.99-5.33h26.6l3.87,9.68c.48,1.26.72,2.48.72,3.71,0,1.73-.73,2.82-2.22,3.29M594.54,522.62l10.76-28.55,11.3,28.55h-22.06Z"/>
    <path class="cls-1" d="M708.13,542.95c2.15-2.56,3.78-5.22,4.83-8,1.07-2.77,1.59-5.41,1.59-7.88,0-4.42-1.15-8.21-3.4-11.33-2.34-3.12-5.14-5.73-8.47-7.78-3.35-2.05-7.97-4.48-13.89-7.29-4.89-2.26-8.43-4.02-10.63-5.24-2.18-1.21-3.97-2.69-5.29-4.39-1.34-1.73-2.01-3.74-2.01-6.04,0-2.96,1.07-5.36,3.23-7.22,2.15-1.87,4.99-2.8,8.53-2.8,9.77,0,16.64,6.09,20.59,18.28h5.57v-22.39h-5.57c-.58,3.02-1.24,5.36-1.95,7.02-2.49-2.94-5.42-5.24-8.83-6.93-3.39-1.68-6.94-2.52-10.7-2.52-4.91,0-9.21,1.12-12.94,3.34-3.71,2.23-6.55,5.1-8.47,8.59-1.94,3.49-2.91,7.03-2.91,10.63,0,2.02.29,4,.92,5.98.58,1.97,1.72,4.05,3.32,6.25,1.58,2.18,3.93,4.45,7.06,6.78,3.1,2.3,7.09,4.63,11.94,6.91,3.17,1.41,5.97,2.76,8.45,4.06,2.46,1.28,4.4,2.47,5.81,3.61,1.41,1.11,2.5,2.4,3.27,3.81.73,1.42,1.12,3.07,1.12,4.96,0,3.35-1.22,6.13-3.66,8.33-2.42,2.22-5.65,3.31-9.68,3.31-4.6,0-8.51-1.25-11.68-3.76-3.17-2.5-5.63-5.5-7.36-8.96-1.75-3.46-3.1-7.17-4.08-11.12h-5.45v27.44h5.45c.35-2.49,1.15-5.17,2.42-8.1,2.92,3.64,6.48,6.43,10.69,8.28,4.19,1.85,8.44,2.77,12.68,2.77s8.08-.8,11.37-2.4c3.27-1.58,5.98-3.67,8.12-6.19"/>
    <path class="cls-1" d="M829.93,540.95c-.83-1.6-2.16-4.67-3.97-9.16l-24.98-63.85h-5.74l-23.65,61.89c-1.65,4.32-3.2,7.64-4.61,10.02-1.45,2.34-2.96,3.97-4.52,4.81-1.58.85-3.49,1.25-5.75,1.25v5.57h28.22v-5.57c-2.49,0-4.68-.31-6.54-.96-1.87-.64-2.82-2.18-2.82-4.6,0-1.33.56-3.48,1.68-6.47l2.01-5.33h26.59l3.88,9.68c.48,1.26.73,2.48.73,3.71,0,1.73-.76,2.82-2.24,3.29-1.52.44-3.89.68-7.14.68v5.57h38.63v-5.55c-2.71,0-4.82-.44-6.3-1.3-1.48-.87-2.65-2.1-3.5-3.69M781.64,522.62l10.73-28.55,11.32,28.55h-22.05Z"/>
    <path class="cls-1" d="M988.39,541.78c-.49,1.34-1.57,2.39-3.22,3.08-1.64.72-4.26,1.06-7.8,1.06v5.57h41.06v-5.57c-3.49,0-6.12-.36-7.87-1.1-1.76-.75-2.88-1.83-3.35-3.18-.48-1.37-.74-3.17-.74-5.39v-51.53c0-3.53.74-6.01,2.2-7.49,1.48-1.47,4.74-2.2,9.76-2.2v-5.57h-29.31l-27.25,57.87-27.21-57.87h-29.93v5.57c3.86,0,6.61.39,8.25,1.18,1.64.77,2.63,1.93,2.99,3.48.36,1.52.56,4.03.56,7.49v46.46c0,2.57-.1,4.54-.26,5.88-.15,1.36-.59,2.51-1.32,3.48-.72.97-1.89,1.69-3.47,2.16-1.59.48-3.83.73-6.73.73v5.57h30.3v-5.57c-2.84,0-5.09-.23-6.7-.68-1.6-.47-2.79-1.17-3.54-2.15-.73-.96-1.2-2.13-1.36-3.51-.19-1.38-.29-3.35-.29-5.93v-48.82l31.37,66.65h3.69l30.94-66.65v51.42c0,2.34-.25,4.2-.76,5.54"/>
    <path class="cls-1" d="M349.32,579.88c1.22,0,2.18.1,2.86.27.69.19,1.18.49,1.48.89.3.4.47.88.56,1.41.06.53.1,1.36.1,2.43v12.17c0,1.58-.09,2.96-.21,4.08-.14,1.15-.45,2.24-.9,3.32-.59,1.36-1.64,2.46-3.14,3.33-1.5.85-3.12,1.28-4.88,1.28-1.62,0-3.11-.42-4.47-1.21-1.34-.79-2.31-1.88-2.88-3.23-.3-.81-.53-1.76-.66-2.85-.14-1.09-.21-2.35-.21-3.8v-14.08c0-.99.11-1.77.33-2.31.22-.56.69-.96,1.39-1.25.72-.29,1.8-.45,3.25-.45v-2.27h-17.05v2.27c2.11,0,3.45.31,4.03.91.57.6.86,1.63.86,3.1l.06,14.08c0,1.2.02,2.18.06,2.9.04.75.17,1.55.39,2.38.2.83.52,1.68.91,2.5.73,1.52,1.81,2.73,3.23,3.66,1.4.94,2.93,1.6,4.56,2.01,1.64.41,3.23.62,4.78.62,2.11,0,4.28-.43,6.55-1.29,2.28-.86,4.03-2.42,5.3-4.69.68-1.18,1.11-2.34,1.26-3.49.14-1.17.23-2.87.23-5.17v-12.48c0-1.35.08-2.33.23-2.98.14-.66.55-1.15,1.21-1.51.65-.35,1.72-.54,3.26-.54v-2.28h-12.45v2.28Z"/>
    <path class="cls-1" d="M428.84,577.62v2.28c1.51,0,2.6.19,3.29.56.69.36,1.12.9,1.3,1.56.16.67.26,1.64.26,2.9v15.43l-19.27-22.74h-9.85v2.27c1.14.12,2.02.34,2.66.68.63.32,1.1.74,1.38,1.27.28.51.46,1.13.54,1.82.07.7.11,1.75.11,3.15v17.24c0,1.41-.08,2.44-.23,3.08-.17.64-.58,1.13-1.25,1.47-.67.34-1.76.53-3.26.53v2.27h12.58v-2.27c-1.61,0-2.76-.19-3.47-.53-.71-.34-1.16-.83-1.32-1.47-.17-.65-.26-1.67-.26-3.08v-18.62l22.13,26.29h2.28v-26.81c0-1.44.1-2.46.25-3.08.16-.63.6-1.1,1.3-1.44.69-.33,1.86-.5,3.47-.5v-2.26h-12.62Z"/>
    <path class="cls-1" d="M484.1,579.9c2.13,0,3.5.3,4.1.9.62.59.91,1.62.91,3.09v21.22c0,1.03-.12,1.79-.34,2.35-.23.55-.7.95-1.44,1.22-.74.28-1.81.44-3.24.44v2.27h17.16v-2.27c-1.5,0-2.61-.16-3.31-.47-.71-.29-1.17-.72-1.37-1.25-.23-.56-.34-1.3-.34-2.28v-21.22c0-1.02.11-1.78.34-2.35.24-.54.71-.95,1.44-1.22.73-.28,1.81-.43,3.24-.43v-2.27h-17.16v2.27Z"/>
    <path class="cls-1" d="M568.69,579.91c1.52.05,2.63.19,3.39.45.74.27,1.12.94,1.12,2.02,0,.56-.3,1.57-.9,3.02l-7.19,16.87-7.77-18.05c-.39-.86-.6-1.66-.6-2.4,0-.81.31-1.31.94-1.51.65-.19,1.76-.31,3.4-.4v-2.28h-17.21v2.28c1.32,0,2.32.12,2.96.39.66.23,1.21.69,1.61,1.31.38.64.94,1.78,1.65,3.47l11.53,26.98h2.32l11.02-25.71c.69-1.57,1.21-2.73,1.59-3.45.39-.73.78-1.3,1.15-1.73.39-.44.87-.74,1.46-.94.58-.21,1.28-.31,2.06-.34v-2.25s-12.53,0-12.53,0v2.28Z"/>
    <path class="cls-1" d="M649.97,605.96c-1,1.2-2.01,1.96-3.06,2.23-1.02.31-2.12.43-3.27.43h-2.71c-1.21,0-2.14-.07-2.8-.25-.66-.21-1.14-.49-1.42-.9-.29-.41-.47-.92-.55-1.53-.06-.62-.09-1.6-.09-2.94v-7.95h3.48c1.19,0,2.06.1,2.63.31.58.19,1,.58,1.24,1.17.29.6.44,1.51.51,2.78h2.29v-11.24h-2.39c-.08,1.25-.25,2.15-.47,2.74-.23.58-.65.97-1.23,1.17-.58.2-1.46.32-2.65.32h-3.43v-11.96h6.34c1.67,0,2.92.11,3.76.31.82.2,1.6.7,2.27,1.54.7.84,1.27,2.23,1.78,4.18h2.28l-.41-8.76h-28.1v2.27c1.49,0,2.57.16,3.28.46.72.32,1.17.74,1.36,1.29.17.53.28,1.29.28,2.27v21.21c0,1.48-.31,2.51-.88,3.12-.6.58-1.95.9-4.03.9v2.27h30.13l.29-11.12h-2.3c-.43,2.58-1.12,4.46-2.12,5.67"/>
    <path class="cls-1" d="M732.73,608.6c-.56-.31-1.2-.86-1.87-1.7-.7-.82-1.55-2.03-2.59-3.64-1.83-2.83-3.15-4.77-3.98-5.83-.86-1.05-1.87-1.95-3.08-2.65,1.77-.48,3.2-1.16,4.28-1.97s1.89-1.77,2.38-2.85c.49-1.05.72-2.15.72-3.27,0-1.57-.34-2.98-1.05-4.16-.73-1.19-1.63-2.18-2.73-2.89-1.13-.73-2.3-1.25-3.57-1.57-.85-.24-1.99-.43-3.47-.6-1.46-.16-3.03-.26-4.72-.32-1.19-.02-2.03-.03-2.57-.03-.65,0-1.36.01-2.15.02-.75.02-1.44.04-2.05.09l-7.82.25v2.35c2.09,0,3.42.31,4.01.9.57.61.85,1.63.85,3.09v21.32c0,1.48-.28,2.49-.88,3.09-.6.6-1.93.92-3.98.92v2.27h16.94v-2.27c-1.41,0-2.48-.15-3.23-.47-.75-.29-1.23-.73-1.4-1.3-.22-.58-.31-1.32-.31-2.25v-8.81h1.28c1.61,0,2.77.07,3.44.25.68.18,1.27.59,1.79,1.2.54.62,1.3,1.79,2.34,3.48l2.29,3.79c.38.6.86,1.39,1.42,2.33.6.94,1.13,1.77,1.62,2.46.47.69.9,1.22,1.25,1.59h9.03v-2.24c-.87-.11-1.61-.28-2.19-.56M718.36,592.3c-1.71.81-3.82,1.23-6.33,1.23h-1.57v-13.59h.72c.2-.01.5-.03.86-.03,2.64,0,4.79.43,6.42,1.32,1.65.89,2.49,2.69,2.49,5.36,0,2.99-.85,4.91-2.57,5.7"/>
    <path class="cls-1" d="M797.82,593.69c-1.41-.86-3.33-1.89-5.83-3.07-2.05-.95-3.55-1.71-4.48-2.22-.92-.53-1.66-1.14-2.22-1.86-.57-.73-.85-1.57-.85-2.55,0-1.25.45-2.25,1.36-3.05.89-.78,2.1-1.19,3.61-1.19,4.13,0,7.01,2.58,8.65,7.72h2.33v-9.43h-2.33c-.25,1.25-.49,2.22-.81,2.93-1.05-1.23-2.27-2.19-3.7-2.9-1.44-.71-2.95-1.05-4.51-1.05-2.06,0-3.88.47-5.44,1.4-1.56.94-2.75,2.15-3.58,3.63-.82,1.45-1.21,2.94-1.21,4.46,0,.83.11,1.68.37,2.51.28.83.73,1.71,1.39,2.62.67.93,1.67,1.88,2.99,2.86,1.29.97,2.98,1.95,5.03,2.92,1.33.6,2.5,1.16,3.55,1.69,1.03.56,1.85,1.07,2.45,1.54.6.47,1.03,1,1.37,1.6.32.61.46,1.28.46,2.09,0,1.41-.51,2.58-1.55,3.52-1.01.93-2.36,1.38-4.05,1.38-1.95,0-3.58-.52-4.9-1.57-1.35-1.05-2.38-2.3-3.12-3.78-.73-1.45-1.31-3.03-1.73-4.68h-2.28v11.57h2.28c.16-1.05.49-2.19,1.02-3.42,1.24,1.54,2.72,2.7,4.49,3.49,1.77.78,3.56,1.17,5.37,1.17s3.41-.37,4.77-1.02c1.38-.67,2.53-1.54,3.43-2.61.9-1.09,1.57-2.2,2.02-3.37.43-1.18.7-2.27.7-3.33,0-1.86-.49-3.45-1.45-4.76-.99-1.3-2.18-2.39-3.59-3.25"/>
    <path class="cls-1" d="M846.9,579.9c2.14,0,3.51.3,4.12.9.6.59.91,1.62.91,3.09v21.22c0,1.03-.11,1.79-.34,2.35-.22.55-.7.95-1.43,1.22-.73.28-1.8.44-3.26.44v2.27h17.16v-2.27c-1.48,0-2.59-.16-3.29-.47-.7-.29-1.17-.72-1.37-1.25-.21-.56-.33-1.3-.33-2.28v-21.22c0-1.02.13-1.78.33-2.35.24-.54.7-.95,1.45-1.22.72-.28,1.81-.43,3.23-.43v-2.27h-17.17v2.27Z"/>
    <path class="cls-1" d="M907.31,587.2h2.38c.09-2.1.48-3.64,1.2-4.65.72-1.01,1.54-1.61,2.47-1.85.92-.22,2.1-.34,3.51-.34h3.59v24.75c0,1.49-.29,2.5-.9,3.09-.59.6-1.93.92-3.99.92v2.27h16.94v-2.27c-1.42,0-2.48-.15-3.22-.47-.73-.29-1.19-.73-1.39-1.26-.19-.53-.29-1.28-.29-2.28v-24.75h4.29c1.03,0,2,.11,2.79.35.82.22,1.57.84,2.29,1.85.7.99,1.17,2.54,1.38,4.64h2.36v-9.58s-33.4,0-33.4,0v9.58Z"/>
    <path class="cls-1" d="M1006.22,579.91c1.21,0,2.16.14,2.84.39.69.28,1.03.93,1.03,1.97,0,.79-.53,2.06-1.61,3.78l-5.02,7.93-5.27-8.9c-.72-1.23-1.18-2.06-1.37-2.52-.21-.43-.29-.84-.29-1.14,0-.47.12-.82.42-1.04.31-.2.67-.34,1.14-.39.46-.06,1.07-.08,1.89-.08v-2.28h-15.87v2.28c1.13.05,1.97.26,2.53.62.58.37,1.23,1.15,1.97,2.35.02.04.08.11.14.23.08.13.14.24.23.33l8.49,14.14v7.54c0,1.03-.11,1.79-.33,2.34-.24.56-.7.95-1.43,1.23-.72.28-1.81.43-3.21.43v2.27h17.02v-2.27c-1.5,0-2.59-.16-3.29-.52-.7-.32-1.15-.74-1.32-1.3-.21-.55-.31-1.28-.31-2.21v-7.98l7.1-11c1.18-1.81,2.09-3.1,2.71-3.89.6-.83,1.2-1.38,1.79-1.74.62-.34,1.37-.53,2.28-.62v.02h.02v-2.27h-12.3v2.28Z"/>
    <path class="cls-1" d="M904.96,532.21l.34-1.3h-4.68l-.29.45c-1.76,2.58-3.54,3.68-5.92,3.68-1.81,0-3.58-.56-5.17-1.64-1.62-1.09-3.93-3.74-6.83-7.79,1.32-1.97,2.68-4.6,4.16-8.09,1.91-4.62,3.71-7.72,5.42-9.28,1.69-1.56,3.69-2.67,5.95-3.27l.38-.12.75-.2v-4.88h-23.05v5.08l.91.12.46.03c5.23.6,5.92,2.8,5.92,4.66,0,.89-.27,2.6-1.44,5.67-.68,1.73-1.67,3.54-2.89,5.45l-13.26-18.36c8.41-4.53,12.71-9.39,12.71-14.41,0-3.61-1.57-6.54-4.7-8.72-2.99-2.07-6.34-3.12-9.99-3.12-4.19,0-7.7,1.42-10.49,4.25-2.75,2.82-4.19,6.09-4.19,9.7,0,3.97,1.7,8.46,4.95,13.31-5.47,3.77-9.34,6.97-11.35,9.51-2.34,2.91-3.53,6.55-3.53,10.79,0,3.7.94,7.01,2.82,9.88,1.87,2.82,4.29,5.04,7.21,6.58,2.95,1.56,6.05,2.33,9.26,2.33,6,0,11.79-2.86,17.25-8.47,4.69,5.61,10.09,8.47,16.08,8.47,3.14,0,5.92-.88,8.29-2.65,2.44-1.79,4.03-4.15,4.77-7.04,0,.01.15-.63.15-.63M862.58,497.94c-3.68-5.44-4.5-8.57-4.5-10.24,0-1.84.51-3.26,1.61-4.51,1.08-1.15,2.45-1.72,4.26-1.72s3.22.58,4.34,1.81c1.12,1.25,1.69,2.96,1.69,5.06,0,3.26-2.51,6.47-7.4,9.59M857.2,507.94c4.28,5.69,9.38,12.99,15.16,21.78-3.15,3.32-6.48,5.07-9.96,5.07s-6.56-1.56-9.29-4.57c-2.81-3.1-4.22-6.39-4.22-9.8-.01-2.18.8-4.48,2.4-6.85,1.32-2,3.33-3.88,5.92-5.63"/>
    <path class="cls-1" d="M1046.42,604.01v-.07c.98-.29,1.77-1.02,1.77-2.2,0-.86-.29-1.49-.82-1.88-.55-.39-1.46-.67-2.82-.67-1.08,0-1.8.1-2.56.2v9.04h1.44v-3.87h1.01c1.15,0,1.73.43,1.94,1.58.18,1.19.4,2.03.61,2.3h1.52c-.15-.27-.36-.83-.58-2.25-.18-1.34-.72-2.06-1.52-2.19M1044.49,603.45h-1.05v-3.06c.26-.04.59-.07,1.05-.07,1.63,0,2.21.78,2.21,1.57,0,1.13-1.01,1.56-2.21,1.56"/>
    <path class="cls-1" d="M1044.99,595.62h-.04c-4.43,0-8.04,3.6-8.04,8.1s3.61,8.16,8.04,8.16,8-3.59,8-8.16-3.54-8.1-7.96-8.1M1044.99,610.59c-3.6,0-6.52-3.02-6.52-6.88s2.92-6.84,6.49-6.84h.04c3.6,0,6.49,3.06,6.49,6.87s-2.88,6.89-6.49,6.85"/>
  </g>
</svg>