<svg viewBox="0 0 598 201.37" xmlns="http://www.w3.org/2000/svg" xmlns:xlink="http://www.w3.org/1999/xlink"><radialGradient id="a" cx="62.4603" cy="101.7769" gradientUnits="userSpaceOnUse" r="82.9821"><stop offset=".17" stop-color="#fff"/><stop offset=".3" stop-color="#f6ede4"/><stop offset=".69" stop-color="#debe9b"/><stop offset=".87" stop-color="#d4ac7f"/></radialGradient><g transform="translate(-1 -1.32)"><path d="m65 202a8.72 8.72 0 0 1 -2.43-2.68l-.14-.21-.25-.06c-41.8-9.71-65.09-73.9-59.84-125.41a110.07 110.07 0 0 1 3-16.74 81.64 81.64 0 0 1 5.36-14.74 54.33 54.33 0 0 1 8.66-13c6.95-7.61 15.53-11.7 24.83-11.83a.76.76 0 0 0 .81-.62c1.63-3.32 5.82-5.63 8.94-6.07l.44-.06.11-.43c.11-.34 2.1-8.15 10.51-8.15s10.53 8 10.55 8.12l.1.43.44.06c3.14.39 7.3 2.79 8.91 6.09a.75.75 0 0 0 .86.59c9.31.13 17.89 4.22 24.84 11.83a55.41 55.41 0 0 1 9.79 15.48l.54 1.27a98.18 98.18 0 0 1 6.66 27.76c5.24 51.51-18 115.7-59.86 125.45l-.25.06-.14.21a8.72 8.72 0 0 1 -2.44 2.65z" fill="url(#a)"/><path d="m128.31 73.58a114.18 114.18 0 0 0 -2-12.68 91.84 91.84 0 0 0 -3.22-11.37 72.18 72.18 0 0 0 -5.09-11.37 52.21 52.21 0 0 0 -6.82-9.47c-7-7.69-15.68-11.92-25.29-12.06h-.24c-1.56-3.42-5.86-6.19-9.6-6.72 0 0-2-8.56-11-8.6s-11 8.6-11 8.6c-3.74.52-8 3.3-9.6 6.72h-.26c-9.61.14-18.27 4.37-25.29 12.07a52.21 52.21 0 0 0 -6.82 9.47 72.18 72.18 0 0 0 -5.13 11.36 91.84 91.84 0 0 0 -3.22 11.37 114.18 114.18 0 0 0 -2 12.68c-5.3 52.18 18.17 116.31 60.38 126.15.64 1 2.11 3 2.92 3s2.28-2 2.92-3c42.2-9.84 65.67-73.97 60.36-126.15zm-63.31-70.25a9 9 0 0 1 9.08 6.37 11.21 11.21 0 0 0 -8.9 5.7.4.4 0 0 1 -.16.22.36.36 0 0 1 -.16-.22 11.21 11.21 0 0 0 -8.86-5.7 9 9 0 0 1 9-6.37zm-4.29 9.89a8.11 8.11 0 0 1 3.67 4.86 1.06 1.06 0 0 0 .62.92 1.06 1.06 0 0 0 .62-1 8.11 8.11 0 0 1 3.67-4.86 9.66 9.66 0 0 1 13.93 3.66 30.86 30.86 0 0 0 -3.85 1 15.23 15.23 0 0 0 -5.48 3 21.69 21.69 0 0 0 -6.99 14.2c-1.54 16.83 17.81 14.18 18.79 14.1 2.5 0 4.39-3.94 4.39-9.16s-1.94-9.16-4.39-9.16c-1.5 0-4.09 1.2-4.33 5.87-.17 3.29 1.44 7.65 3.51 7.93 1.08.14 2.06-1.76 2.37-3.69.27-1.68.13-4.31-1.37-4.69a.88.88 0 0 0 -1.07.65c-.11.43.93 1.16.89 3.1-.06 2.89-3 1.44-2.57-3.14.35-4.08 2.42-3.81 2.51-3.81 1.16 0 2.91 2.42 2.91 7 0 4-1.95 8.37-5.66 6.11-3.13-2.29-4.37-7.56-3.5-11.64.39-1.87 2-7 7.22-7 7.52 0 14.53 4 20.12 11.3-.61 2-4.49 9.46-16.8 16.64-.26.13-.65.36-.67.35a25.34 25.34 0 0 0 -11.38-2.25 62.46 62.46 0 0 0 -10.7 1.7 9.43 9.43 0 0 1 -2.12.35 9.43 9.43 0 0 1 -2.12-.35 62.46 62.46 0 0 0 -10.7-1.7 25.34 25.34 0 0 0 -11.38 2.25s-.41-.22-.67-.35c-12.35-7.21-16.18-14.7-16.84-16.67 5.59-7.35 12.6-11.3 20.12-11.3 5.21 0 6.83 5.1 7.22 7 .87 4.08-.37 9.35-3.5 11.64-3.72 2.27-5.66-2.07-5.66-6.11 0-4.53 1.75-7 2.91-7 .09 0 2.16-.25 2.51 3.81.39 4.58-2.51 6-2.57 3.14 0-1.93 1-2.67.89-3.1a.88.88 0 0 0 -1.07-.65c-1.5.38-1.64 3-1.37 4.69.31 1.93 1.29 3.83 2.37 3.69 2.08-.27 3.68-4.64 3.51-7.93-.24-4.68-2.84-5.87-4.33-5.87-2.45 0-4.39 3.94-4.39 9.16s1.89 9.16 4.39 9.16c1 .08 20.33 2.73 18.79-14.14a21.69 21.69 0 0 0 -7-14.07 15.23 15.23 0 0 0 -5.48-3 30.86 30.86 0 0 0 -3.85-1 9.66 9.66 0 0 1 13.9-3.64zm-36.57 70.78a75 75 0 0 0 -.73 7.63 102.47 102.47 0 0 0 4.72 35.17 114.16 114.16 0 0 0 9.54 21.5c-4 3.59-9.87 5-11.87 5.4-10.69-21.29-16.13-48.7-14.93-73.45a37.22 37.22 0 0 0 13.27 3.75zm-13.19-5.11c1.05-16.89 5.29-30.11 11.5-38.89 1.1 2.87 5.93 10 17.06 16.56-9.51 5.65-13.74 17.44-15.18 26.18a36.46 36.46 0 0 1 -13.38-3.85zm27.35 70.47c7.09 12.23 14.13 19.53 19.49 23.38-1.94 4.93-6.55 8.8-8.16 10-9.25-6.22-17.08-16.08-23.24-28 2.36-.42 7.92-1.88 11.9-5.38zm20.56 24.13a28.13 28.13 0 0 0 6.14 3.39 28.13 28.13 0 0 0 6.17-3.39c2 4.79 6.23 8.51 8.15 10a43.12 43.12 0 0 1 -8.26 4.11c0-.1 0-.2 0-.3-.59-3-4.57-3.67-6-3.67s-5.43.63-6 3.67v.3a43.12 43.12 0 0 1 -8.26-4.11c1.82-1.49 6.04-5.21 8.06-10zm13.41-.75c5.36-3.85 12.4-11.15 19.49-23.38 4 3.51 9.54 5 11.91 5.44-6.16 11.9-14 21.77-23.24 28-1.62-1.26-6.22-5.13-8.17-10.06zm20.12-24.48a114.16 114.16 0 0 0 9.54-21.5 101.74 101.74 0 0 0 3.83-16.89 102.29 102.29 0 0 0 .89-18.28 75 75 0 0 0 -.73-7.63 37.22 37.22 0 0 0 13.26-3.71c1.21 24.73-4.23 52.16-14.92 73.41-2-.39-7.92-1.81-11.87-5.4zm13.33-65.53c-1.44-8.76-5.78-20.3-15.17-26.21 11.13-6.52 15.95-13.7 17.05-16.52 6.21 8.82 10.49 22.06 11.5 38.93a36.46 36.46 0 0 1 -13.38 3.81zm-47.58 113.27a53.73 53.73 0 0 1 -13.54-6.76 63.44 63.44 0 0 1 -7.49-6 71.75 71.75 0 0 1 -5.43-5.69q-1.74-2-3.36-4.18a109.56 109.56 0 0 1 -12.85-22.37 147.42 147.42 0 0 1 -7.9-23.53 162.55 162.55 0 0 1 -4.13-25 149 149 0 0 1 -.16-25c.37-4.47.9-8.93 1.72-13.33a90.72 90.72 0 0 1 3.28-12.93 71.6 71.6 0 0 1 4.85-11.21 48.29 48.29 0 0 1 7.26-10.23 37.36 37.36 0 0 1 9.15-7.16 32.13 32.13 0 0 1 4.46-2q1.17-.42 2.37-.75a20.35 20.35 0 0 1 2.38-.6 32.34 32.34 0 0 1 5.91-.48 17.5 17.5 0 0 1 9 2.42 18.44 18.44 0 0 1 7.69 13.95c.91 10.42-9.71 12.06-11.79 12-.32 0-.49-.3.55-1.37a15.06 15.06 0 0 0 2.37-11.78c-1-4.78-4.38-8.52-9.27-8.51-7.32 0-13.86 3.68-18.73 9s-8 11.59-10.31 18.15a98.48 98.48 0 0 0 -5.07 26.26 144 144 0 0 0 .53 24.55 158.52 158.52 0 0 0 4.5 24.44 140.31 140.31 0 0 0 8.14 22.73 100 100 0 0 0 12.63 20.82 59.73 59.73 0 0 0 18.77 15.86 41.86 41.86 0 0 0 5.09 2.21 15.49 15.49 0 0 0 1.53 7.16 15.28 15.28 0 0 1 -2.15-.67zm7.6 3.57a1.39 1.39 0 0 1 -.72.48 1.39 1.39 0 0 1 -.72-.48c-1.81-2.27-4.5-6.67-3.49-11.93.29-1.48 2.78-2.15 4.21-2.16s3.92.68 4.21 2.16c1.02 5.28-1.68 9.68-3.48 11.95zm60.87-97.14a162.55 162.55 0 0 1 -4.13 25 147.42 147.42 0 0 1 -7.9 23.53 109.56 109.56 0 0 1 -12.86 22.35q-1.62 2.14-3.36 4.18a71.75 71.75 0 0 1 -5.43 5.69 63.44 63.44 0 0 1 -7.49 6 53.73 53.73 0 0 1 -13.53 6.82 15.28 15.28 0 0 1 -2.15.64 15.49 15.49 0 0 0 1.53-7.16 41.86 41.86 0 0 0 5.09-2.21 59.73 59.73 0 0 0 18.77-15.86 100 100 0 0 0 12.64-20.81 140.31 140.31 0 0 0 8.14-22.73 158.52 158.52 0 0 0 4.5-24.44 144 144 0 0 0 .57-24.53 98.48 98.48 0 0 0 -5.08-26.25c-2.32-6.56-5.57-13-10.31-18.15s-11.4-9-18.73-9c-4.89 0-8.27 3.73-9.27 8.51a15.06 15.06 0 0 0 2.39 11.79c1 1.07.87 1.37.55 1.37-2.08 0-12.7-1.63-11.79-12a18.44 18.44 0 0 1 7.69-13.95 17.5 17.5 0 0 1 9-2.42 32.34 32.34 0 0 1 5.91.48 20.23 20.23 0 0 1 2.38.6q1.2.33 2.37.75a32.13 32.13 0 0 1 4.46 2 37.36 37.36 0 0 1 9.15 7.16 48.29 48.29 0 0 1 7.2 10.21 71.6 71.6 0 0 1 4.85 11.22 90.72 90.72 0 0 1 3.29 12.93c.8 4.4 1.34 8.85 1.71 13.31a149 149 0 0 1 -.16 24.99z" fill="#282728"/><path d="m104.35 91.92c-.26-6.2-2.07-25.14-15-33.35a21.72 21.72 0 0 0 -10.12-2.79c-6.33-.41-11 2-14.17 2.09h-.11c-3.16-.09-7.88-2.51-14.21-2.09a21.58 21.58 0 0 0 -10.08 2.79c-12.89 8.21-14.66 27.15-14.96 33.35a100.41 100.41 0 0 0 8.17 43.8c8.92 19.63 19.68 33.51 30.31 38.23l.82.38.86-.38c10.62-4.72 21.39-18.6 30.3-38.23a100.42 100.42 0 0 0 8.19-43.8z" fill="#c5050c"/><path d="m84.17 77v4.29l.83-.11a3.09 3.09 0 0 1 .41 0 2.71 2.71 0 0 1 1.89.64 2.92 2.92 0 0 1 .49 2.56s-8.62 37.35-10.26 44.46c-1.88-9-12.14-58.08-12.14-58.08v-.21h-2v.22l-8.9 57.35-10.28-43.72a6.22 6.22 0 0 1 0-.64 2.93 2.93 0 0 1 .71-2.19 2.25 2.25 0 0 1 1.66-.51l.85.11v-4.17h-14.43v4.05l.64.1a2.67 2.67 0 0 1 2.18 1.92l17.58 75.4v.2h2.6v-.22c.08-.5 6.94-45.36 8.22-53.76 1.63 8.37 10.36 53.27 10.45 53.77v.21h2.33l16.7-75.61a2.25 2.25 0 0 1 2.3-1.74h.17l.83.07v-4.39z" fill="#fff"/><g fill="#c5050c"><path d="m208.3 77c7 2.51 4 10 2.42 15.33l-10.13 34-12.45-40.19c-1.26-4.09-1.87-7.06-1.34-9.38h-12.64v.24c4.93 2.61 3.14 8.64 1.44 14.31l-10.5 35.35-13.34-43.21c-.54-1.77-1.43-4.65-1.07-6.69h-13.09v.24c4.48 3.16 5.83 9.2 7.44 14.31l10.58 34.29c3 9.58 3.76 8.92 11.91 15.06l14-46.93 9.85 32c3 9.57 3.59 9.11 11.83 15l18.9-63.93h-13.81z"/><path d="m225.15 77c4.57 1.77 3.94 8.55 3.94 12.83v35c0 4.18.54 11.06-3.94 12.73v.28h17v-.28c-4.48-1.77-3.95-8.56-3.95-12.73v-35c0-4.18-.53-11.06 3.95-12.83v-.24h-17z"/><path d="m257.85 90.42c0-6.41 6.46-8.46 11.56-8.46a20 20 0 0 1 14.07 5.85v-10.5a43.6 43.6 0 0 0 -13.36-2c-10.93 0-22.49 4.47-22.49 16.17 0 19.7 30.82 17.1 30.82 31.6 0 6.5-7.7 9.66-12.81 9.66a30.39 30.39 0 0 1 -19.64-7.74l2.6 11.61a44.84 44.84 0 0 0 16 2.79c14 0 24-9.3 24-19.23.08-17.17-30.75-17.03-30.75-29.75z"/><path d="m325 131.68c-13.8 0-22.77-12.18-22.77-25.84 0-13.48 8.6-22.86 21-22.86a30.35 30.35 0 0 1 16.58 5.3v-10.69a69.2 69.2 0 0 0 -16.31-2.33c-18.37 0-31.46 12.73-31.46 32 0 19.89 13.09 32.15 34.24 32.15a30.71 30.71 0 0 0 13.53-2.79l4.57-10.77h-.27c-5.67 3.31-12.39 5.83-19.11 5.83z"/><path d="m376.67 75.18c-18.81-.47-33.6 14.3-33.6 32 0 19.06 15 32.25 32.71 32.25s33-13.76 33-32.72a31.45 31.45 0 0 0 -32.11-31.53zm-.44 57.51c-14.07 0-22.95-13.38-22.95-26.39 0-14 8.88-24.44 22.77-24.44 14.15 0 22.48 13.11 22.48 26.67.01 13.86-8.68 24.16-22.3 24.16z"/><path d="m454.79 77c4.75 2.79 4.66 6.51 4.66 11.71v35.29l-32.8-43-1.26-1.86a5.72 5.72 0 0 1 -1.34-2.33v-.05h-13.05v.24c4.66 2.79 4.66 6.51 4.66 11.71v37.08c0 5.2 0 8.91-4.75 11.8v.28h15.86v-.28c-4.75-2.89-4.66-6.6-4.66-11.8v-36l30.74 40.42c3.94 5.3 6.72 8.37 13.08 10.6v-52.07c0-5.2 0-8.92 4.66-11.71v-.27h-15.8z"/><path d="m483.67 90.42c0-6.41 6.45-8.46 11.56-8.46a20 20 0 0 1 14.07 5.85v-10.5a43.51 43.51 0 0 0 -13.35-2c-10.92 0-22.49 4.47-22.49 16.17 0 19.7 30.82 17.1 30.82 31.6 0 6.5-7.7 9.66-12.82 9.66a30.41 30.41 0 0 1 -19.62-7.74l2.6 11.61a44.89 44.89 0 0 0 16 2.79c14 0 24-9.3 24-19.23.06-17.17-30.77-17.03-30.77-29.75z"/><path d="m517.88 77c4.57 1.77 3.94 8.55 3.94 12.83v35c0 4.18.54 11.06-3.94 12.73v.28h17v-.28c-4.48-1.77-3.94-8.56-3.94-12.73v-35c0-4.18-.55-11.06 3.94-12.83v-.24h-17z"/><path d="m583.23 76.76v.24c4.76 2.79 4.67 6.51 4.67 11.71v35.29l-32.81-43-1.26-1.86a6 6 0 0 1 -1.34-2.33v-.05h-13.08v.24c4.66 2.79 4.66 6.51 4.66 11.71v37.08c0 5.2 0 8.91-4.74 11.8v.28h15.86v-.28c-4.75-2.89-4.66-6.6-4.66-11.8v-36l30.73 40.42c3.94 5.3 6.73 8.37 13.08 10.6v-52.07c0-5.2 0-8.92 4.66-11.71v-.27z"/></g><g fill="#282728"><path d="m166.52 151.8v10.8a6.41 6.41 0 0 1 -.79 3.24 5.27 5.27 0 0 1 -2.3 2.13 8 8 0 0 1 -3.59.75 6.7 6.7 0 0 1 -4.83-1.64 5.94 5.94 0 0 1 -1.72-4.52v-10.76h2.71v10.56a4.21 4.21 0 0 0 1 3 4 4 0 0 0 2.94 1q3.86 0 3.86-4v-10.56h2.73z"/><path d="m185 168.48h-3.34l-8.2-13.29h-.09l.06.74q.16 2.12.16 3.88v8.67h-2.48v-16.68h3.31l8.14 13.2h.07c0-.18 0-.81-.09-1.91s-.07-2-.07-2.58v-8.71h2.53z"/><path d="m189.88 168.48v-16.68h2.73v16.68z"/><path d="m207 151.8h2.83l-5.83 16.68h-2.87l-5.82-16.68h2.81l3.48 10.37q.27.74.58 1.91c.2.78.34 1.36.4 1.74.1-.58.25-1.25.46-2s.37-1.32.5-1.69z"/><path d="m222 168.48h-9.44v-16.68h9.44v2.31h-6.7v4.54h6.29v2.28h-6.29v5.24h6.7v2.32z"/><path d="m228.86 161.82v6.66h-2.73v-16.68h4.71a7.75 7.75 0 0 1 4.78 1.21 4.35 4.35 0 0 1 1.55 3.65 4.56 4.56 0 0 1 -3.24 4.44l4.71 7.38h-3.1l-4-6.66h-2.69zm0-2.26h1.9a4.3 4.3 0 0 0 2.76-.71 2.56 2.56 0 0 0 .86-2.1 2.26 2.26 0 0 0 -.92-2 5.08 5.08 0 0 0 -2.79-.62h-1.8v5.45z"/><path d="m251.2 164a4.2 4.2 0 0 1 -1.61 3.49 7 7 0 0 1 -4.44 1.27 10.58 10.58 0 0 1 -4.63-.88v-2.58a12.47 12.47 0 0 0 2.43.84 10.18 10.18 0 0 0 2.39.31 3.81 3.81 0 0 0 2.39-.62 2 2 0 0 0 .77-1.66 2.07 2.07 0 0 0 -.71-1.59 10.71 10.71 0 0 0 -2.92-1.54 7.69 7.69 0 0 1 -3.22-2.11 4.46 4.46 0 0 1 -.94-2.85 4 4 0 0 1 1.48-3.29 6.16 6.16 0 0 1 4-1.2 11.68 11.68 0 0 1 4.77 1.05l-.87 2.22a10.4 10.4 0 0 0 -4-.94 3 3 0 0 0 -2 .58 1.89 1.89 0 0 0 -.69 1.52 2.12 2.12 0 0 0 .27 1.11 2.79 2.79 0 0 0 .9.87 14.9 14.9 0 0 0 2.26 1.08 12.56 12.56 0 0 1 2.69 1.43 4.24 4.24 0 0 1 1.28 1.49 4.54 4.54 0 0 1 .4 2z"/><path d="m254.94 168.48v-16.68h2.73v16.68z"/><path d="m268.35 168.48h-2.73v-14.34h-4.91v-2.34h12.54v2.34h-4.91v14.34z"/><path d="m281 159.41 4-7.61h3l-5.61 10.2v6.47h-2.74v-6.38l-5.53-10.3h3z"/><path d="m312.06 160.12a9.11 9.11 0 0 1 -2 6.33 8.56 8.56 0 0 1 -11.57 0 9.17 9.17 0 0 1 -2-6.37 9 9 0 0 1 2-6.34 7.51 7.51 0 0 1 5.81-2.21 7.35 7.35 0 0 1 5.75 2.25 9.12 9.12 0 0 1 2.01 6.34zm-12.73 0a7.48 7.48 0 0 0 1.24 4.67 5.06 5.06 0 0 0 7.35 0 9.47 9.47 0 0 0 0-9.34 4.33 4.33 0 0 0 -3.66-1.59 4.42 4.42 0 0 0 -3.7 1.59 7.39 7.39 0 0 0 -1.24 4.67z"/><path d="m318.86 168.48h-2.7v-16.68h9.41v2.31h-6.71v5.21h6.28v2.32h-6.28z"/><path d="m351.08 168.48h-3l-2.83-9.95q-.18-.65-.46-1.88t-.29-1.65c-.08.48-.2 1.12-.37 1.89s-.31 1.35-.43 1.73l-2.76 9.9h-3l-2.16-8.35-2.19-8.33h2.79l2.38 9.72a41.18 41.18 0 0 1 .8 4.13c.08-.65.21-1.37.38-2.17s.32-1.45.46-1.94l2.72-9.74h2.7l2.78 9.79a36.25 36.25 0 0 1 .85 4.06 29.4 29.4 0 0 1 .82-4.15l2.37-9.7h2.76z"/><path d="m358.3 168.48v-16.68h2.7v16.68z"/><path d="m375.56 164a4.19 4.19 0 0 1 -1.61 3.49 7 7 0 0 1 -4.44 1.27 10.58 10.58 0 0 1 -4.63-.88v-2.58a12.4 12.4 0 0 0 2.43.84 10.16 10.16 0 0 0 2.39.31 3.82 3.82 0 0 0 2.39-.62 2 2 0 0 0 .77-1.66 2.07 2.07 0 0 0 -.71-1.59 10.67 10.67 0 0 0 -2.92-1.54 7.73 7.73 0 0 1 -3.23-2.14 4.46 4.46 0 0 1 -.93-2.85 4 4 0 0 1 1.48-3.29 6.16 6.16 0 0 1 4-1.2 11.67 11.67 0 0 1 4.77 1.05l-.86 2.22a10.41 10.41 0 0 0 -4-.94 3 3 0 0 0 -2 .58 1.89 1.89 0 0 0 -.68 1.52 2.12 2.12 0 0 0 .27 1.11 2.77 2.77 0 0 0 .9.87 15.19 15.19 0 0 0 2.26 1.08 12.49 12.49 0 0 1 2.69 1.43 4.21 4.21 0 0 1 1.26 1.49 4.5 4.5 0 0 1 .4 2.03z"/><path d="m386.4 153.9a4.5 4.5 0 0 0 -3.7 1.67 8.76 8.76 0 0 0 0 9.24 4.57 4.57 0 0 0 3.75 1.57 9.88 9.88 0 0 0 2.06-.21q1-.21 2.06-.54v2.37a12.48 12.48 0 0 1 -4.45.74 7.11 7.11 0 0 1 -5.62-2.22 9.28 9.28 0 0 1 -2-6.35 10.28 10.28 0 0 1 1-4.55 6.79 6.79 0 0 1 2.75-3 8.35 8.35 0 0 1 4.23-1 10.54 10.54 0 0 1 4.72 1.07l-1 2.27a14.58 14.58 0 0 0 -1.79-.7 6.41 6.41 0 0 0 -2.01-.36z"/><path d="m409.44 160.12a9.1 9.1 0 0 1 -2 6.33 8.56 8.56 0 0 1 -11.57 0 9.18 9.18 0 0 1 -2-6.37 9.06 9.06 0 0 1 2-6.34 7.51 7.51 0 0 1 5.81-2.21 7.35 7.35 0 0 1 5.75 2.25 9.11 9.11 0 0 1 2.01 6.34zm-12.73 0a7.48 7.48 0 0 0 1.24 4.67 5.06 5.06 0 0 0 7.36 0 9.47 9.47 0 0 0 0-9.34 4.33 4.33 0 0 0 -3.66-1.59 4.42 4.42 0 0 0 -3.7 1.59 7.41 7.41 0 0 0 -1.24 4.67z"/><path d="m427.43 168.48h-3.34l-8.2-13.29h-.09l.06.74q.16 2.12.16 3.88v8.67h-2.48v-16.68h3.31l8.15 13.2h.07c0-.18 0-.81-.09-1.91s-.07-2-.07-2.58v-8.71h2.5v16.68z"/><path d="m442 164a4.19 4.19 0 0 1 -1.61 3.49 7 7 0 0 1 -4.44 1.27 10.58 10.58 0 0 1 -4.63-.88v-2.58a12.4 12.4 0 0 0 2.43.84 10.16 10.16 0 0 0 2.39.31 3.82 3.82 0 0 0 2.39-.62 2 2 0 0 0 .77-1.66 2.07 2.07 0 0 0 -.71-1.59 10.67 10.67 0 0 0 -2.92-1.54 7.73 7.73 0 0 1 -3.22-2.11 4.46 4.46 0 0 1 -.93-2.85 4 4 0 0 1 1.48-3.29 6.16 6.16 0 0 1 4-1.2 11.67 11.67 0 0 1 4.77 1.05l-.86 2.22a10.41 10.41 0 0 0 -4-.94 3 3 0 0 0 -2 .58 1.89 1.89 0 0 0 -.68 1.52 2.12 2.12 0 0 0 .27 1.11 2.77 2.77 0 0 0 .9.87 15.19 15.19 0 0 0 2.26 1.08 12.49 12.49 0 0 1 2.69 1.43 4.21 4.21 0 0 1 1.26 1.49 4.5 4.5 0 0 1 .39 2z"/><path d="m445.71 168.48v-16.68h2.73v16.68z"/><path d="m467.26 168.48h-3.35l-8.2-13.29h-.09l.06.74q.16 2.12.16 3.88v8.67h-2.48v-16.68h3.31l8.18 13.2h.07c0-.18 0-.81-.09-1.91s-.07-2-.07-2.58v-8.71h2.5z"/><path d="m470.91 163.29v-2.17h9.81v2.17z"/><path d="m491.58 168.48-4.84-13.93h-.09q.19 3.11.19 5.82v8.11h-2.48v-16.68h3.85l4.63 13.27h.07l4.77-13.27h3.86v16.68h-2.63v-8.25q0-1.24.06-3.24t.11-2.42h-.08l-5 13.91h-2.41z"/><path d="m516.79 168.48-1.66-4.63h-6.38l-1.63 4.63h-2.88l6.24-16.75h3l6.24 16.75h-2.9zm-2.38-7-1.56-4.48q-.17-.46-.47-1.44t-.38-1.47a25.61 25.61 0 0 1 -.9 3.07l-1.51 4.35h4.86z"/><path d="m536 160a8.32 8.32 0 0 1 -2.29 6.32q-2.3 2.19-6.61 2.18h-4.67v-16.7h5.16a8.53 8.53 0 0 1 6.2 2.15 8 8 0 0 1 2.21 6.05zm-2.88.09q0-6-5.6-6h-2.36v12.11h1.94q6-.01 6-6.13z"/><path d="m540.07 168.48v-16.68h2.73v16.68z"/><path d="m557.33 164a4.2 4.2 0 0 1 -1.61 3.49 7 7 0 0 1 -4.44 1.27 10.56 10.56 0 0 1 -4.63-.88v-2.58a12.38 12.38 0 0 0 2.42.84 10.18 10.18 0 0 0 2.39.31 3.81 3.81 0 0 0 2.39-.62 2 2 0 0 0 .77-1.66 2.08 2.08 0 0 0 -.71-1.59 10.7 10.7 0 0 0 -2.91-1.58 7.7 7.7 0 0 1 -3.21-2.11 4.46 4.46 0 0 1 -.94-2.85 4 4 0 0 1 1.48-3.29 6.16 6.16 0 0 1 4-1.2 11.68 11.68 0 0 1 4.77 1.05l-.87 2.22a10.4 10.4 0 0 0 -4-.94 3 3 0 0 0 -2 .58 1.88 1.88 0 0 0 -.69 1.52 2.12 2.12 0 0 0 .27 1.11 2.79 2.79 0 0 0 .9.87 15 15 0 0 0 2.26 1.08 12.46 12.46 0 0 1 2.7 1.43 4.2 4.2 0 0 1 1.25 1.49 4.5 4.5 0 0 1 .41 2.04z"/><path d="m575.89 160.12a9.12 9.12 0 0 1 -2 6.33 8.56 8.56 0 0 1 -11.57 0 9.18 9.18 0 0 1 -2-6.37 9 9 0 0 1 2-6.34 7.51 7.51 0 0 1 5.81-2.21 7.35 7.35 0 0 1 5.75 2.25 9.11 9.11 0 0 1 2.01 6.34zm-12.73 0a7.48 7.48 0 0 0 1.24 4.67 5.06 5.06 0 0 0 7.36 0 9.48 9.48 0 0 0 0-9.34 4.33 4.33 0 0 0 -3.66-1.59 4.42 4.42 0 0 0 -3.7 1.59 7.41 7.41 0 0 0 -1.24 4.67z"/><path d="m593.88 168.48h-3.34l-8.2-13.29h-.09l.06.74q.16 2.12.16 3.88v8.67h-2.47v-16.68h3.31l8.17 13.2h.07q0-.26-.09-1.91c0-1.1-.07-2-.07-2.58v-8.71h2.5v16.68z"/></g></g></svg>